<svg width="241" height="90" viewBox="0 0 241 90" fill="none" xmlns="http://www.w3.org/2000/svg">
<path d="M119.436 89.2914C118.038 89.2914 116.673 88.9421 115.339 88.2435C114.006 87.545 113.053 86.4018 112.482 84.8141C112.418 84.6236 112.482 84.4649 112.672 84.3378C112.863 84.2743 113.021 84.4014 113.148 84.7189C113.783 85.9255 114.577 86.8146 115.53 87.3862C116.546 87.9577 117.594 88.2435 118.673 88.2435C118.928 88.2435 119.182 88.2118 119.436 88.1483C119.753 88.1483 120.039 88.1165 120.293 88.053C122.452 87.545 124.135 86.2748 125.342 84.2426C126.612 82.2104 127.501 79.8288 128.009 77.098C128.581 74.3672 128.93 71.6047 129.057 68.8103C129.184 66.0795 129.216 63.7298 129.152 61.7611C127.374 62.7772 125.532 63.6663 123.627 64.4284C121.785 65.1904 119.848 65.8255 117.816 66.3336C116.864 66.5876 115.752 66.8099 114.482 67.0004C113.275 67.1274 111.973 67.1909 110.576 67.1909C108.1 67.1909 105.655 66.7464 103.241 65.8573C100.892 64.9047 99.2721 63.1265 98.383 60.5227C98.1289 59.8876 97.9702 59.2525 97.9067 58.6175C97.8432 57.9189 97.8114 57.2521 97.8114 56.617C97.8114 54.7753 98.0654 52.9971 98.5735 51.2824C99.1451 49.5042 99.7484 47.9165 100.383 46.5194C98.9228 45.6303 97.6209 44.5506 96.4778 43.2805C95.3981 42.0103 94.5725 40.5497 94.001 38.8985C93.7469 38.1364 93.5564 37.3743 93.4294 36.6122C93.3024 35.8502 93.2389 35.1198 93.2389 34.4212C93.2389 31.5634 94.0327 28.9596 95.6204 26.6099C97.2081 24.1966 99.1768 22.1644 101.527 20.5132C103.876 18.862 106.194 17.7824 108.481 17.2743C108.735 17.2108 109.306 17.1156 110.195 16.9885C111.148 16.8615 112.037 16.798 112.863 16.798C113.879 16.798 114.419 16.925 114.482 17.1791C114.609 17.4331 114.514 17.5601 114.196 17.5601C113.307 17.5601 112.45 17.5601 111.624 17.5601C110.799 17.5601 109.941 17.6554 109.052 17.8459C106.893 18.3539 104.765 19.3701 102.67 20.8942C100.637 22.3549 98.9228 24.1648 97.5256 26.3241C96.192 28.4833 95.5251 30.8648 95.5251 33.4686C95.5251 34.1672 95.5887 34.8975 95.7157 35.6596C95.8427 36.3582 96.0332 37.0885 96.2872 37.8506C97.2398 40.5179 98.9545 42.7089 101.431 44.4236C103.527 40.4227 105.845 36.9298 108.385 33.9449C110.926 30.8966 113.593 28.007 116.387 25.2762C119.182 22.4819 122.008 19.5288 124.865 16.417C124.865 15.8454 124.834 15.2421 124.77 14.607C124.77 13.972 124.77 13.3369 124.77 12.7018C124.77 11.1776 124.834 9.65346 124.961 8.12929C125.151 6.54162 125.501 5.17621 126.009 4.03309C126.39 3.20749 126.866 2.3819 127.437 1.55631C128.073 0.667206 128.866 0.222656 129.819 0.222656C130.454 0.222656 130.994 0.444932 131.438 0.889484C131.883 1.27053 132.232 1.77858 132.486 2.41365C132.74 2.98522 132.867 3.6838 132.867 4.50939C132.867 5.90655 132.486 7.3037 131.724 8.70086C131.026 10.098 130.2 11.3999 129.247 12.6065C128.295 13.7497 127.437 14.7658 126.675 15.6549C126.675 18.2587 126.866 20.926 127.247 23.6568C127.692 26.3241 128.104 28.9596 128.485 31.5634C129.946 29.7217 131.661 28.007 133.629 26.4193C135.662 24.7682 137.853 23.6568 140.202 23.0852C140.964 22.8947 141.79 22.7994 142.679 22.7994C143.949 22.7994 145.156 23.117 146.299 23.752C147.506 24.3236 148.395 25.435 148.966 27.0862C149.347 28.2293 149.538 29.4994 149.538 30.8966C149.538 32.5478 149.316 34.2625 148.871 36.0407C148.427 37.7554 147.982 39.2478 147.537 40.5179C146.077 44.4554 144.076 48.0118 141.536 51.1871C138.996 54.299 136.043 56.9663 132.677 59.189C132.74 60.2051 132.804 61.253 132.867 62.3326C132.931 63.4122 132.963 64.4919 132.963 65.5715C132.963 68.8739 132.645 72.1762 132.01 75.4786C131.438 78.8445 130.359 81.7341 128.771 84.1473C127.183 86.6241 124.834 88.2435 121.722 89.0056C121.087 89.1961 120.325 89.2914 119.436 89.2914ZM126.675 14.3212C127.12 13.8132 127.692 12.9558 128.39 11.7492C129.152 10.4791 129.819 9.14541 130.391 7.74825C130.962 6.35109 131.248 5.20796 131.248 4.31886C131.248 3.93782 131.216 3.68379 131.153 3.55678C131.089 3.36626 130.994 3.17574 130.867 2.98521C130.74 2.7947 130.549 2.69944 130.295 2.69944C129.914 2.69944 129.501 2.98522 129.057 3.55678C128.676 4.06484 128.422 4.50939 128.295 4.89043C127.723 6.09707 127.31 7.65299 127.056 9.5582C126.866 11.3999 126.739 12.9876 126.675 14.3212ZM107.909 46.5194C110.005 46.5194 112.005 46.043 113.91 45.0904C115.879 44.0743 117.689 42.8359 119.34 41.3753C120.992 39.9146 122.42 38.5174 123.627 37.1838C124.897 35.7866 125.85 34.707 126.485 33.9449C126.167 31.2141 125.85 28.5151 125.532 25.8478C125.278 23.117 125.056 20.3862 124.865 17.6554C123.341 19.3065 121.785 20.926 120.198 22.5137C118.61 24.1013 117.086 25.7525 115.625 27.4672C113.974 29.3724 112.418 31.4047 110.957 33.5639C109.56 35.6596 108.258 37.8506 107.052 40.1369C106.544 41.026 106.067 41.9468 105.623 42.8994C105.178 43.8521 104.734 44.8364 104.289 45.8525C105.432 46.2971 106.639 46.5194 107.909 46.5194ZM132.391 57.7601C135.376 55.8549 137.98 53.6321 140.202 51.0919C142.489 48.4881 144.267 45.4397 145.537 41.9468C146.109 40.3592 146.521 38.9302 146.775 37.6601C147.029 36.3265 147.156 35.1198 147.156 34.0402C147.156 31.4999 146.553 29.5947 145.346 28.3246C144.14 27.0544 142.584 26.4193 140.679 26.4193C138.964 26.4193 137.059 26.9592 134.963 28.0388C132.867 29.0549 130.772 30.6108 128.676 32.7066C129.311 36.898 130.01 41.0895 130.772 45.281C131.597 49.4724 132.137 53.6321 132.391 57.7601ZM114.101 64.4284C115.181 64.4284 116.228 64.3649 117.245 64.2378C118.324 64.0473 119.277 63.8568 120.102 63.6663C123.278 62.9042 126.231 61.7611 128.962 60.2369C128.898 56.0454 128.612 51.854 128.104 47.6625C127.66 43.4075 127.183 39.1525 126.675 34.8975C125.977 36.1042 124.992 37.5013 123.722 39.089C122.452 40.6132 120.96 42.1056 119.245 43.5663C117.53 44.9634 115.657 46.1383 113.625 47.0909C111.656 48.0435 109.592 48.5198 107.433 48.5198C106.163 48.5198 104.892 48.3293 103.622 47.9483C103.368 48.8374 103.114 49.8217 102.86 50.9013C102.67 51.981 102.574 53.0606 102.574 54.1402C102.574 55.4739 102.765 56.8075 103.146 58.1412C104.035 60.5544 105.528 62.2056 107.623 63.0947C109.782 63.9838 111.942 64.4284 114.101 64.4284Z" fill="#FFA55C"/>
<path d="M19.24 50.1278C19.24 48.1438 19.112 46.4958 18.856 45.1838C18.632 43.8718 18.312 43.2158 17.896 43.2158C17.64 43.2158 17.4 43.4078 17.176 43.7918C16.952 44.1438 16.76 44.6558 16.6 45.3278C16.472 45.9678 16.36 46.7358 16.264 47.6318C16.2 48.4958 16.168 49.4398 16.168 50.4638C16.168 52.2878 16.296 54.2558 16.552 56.3678C16.808 58.4478 17.256 60.4638 17.896 62.4158C18.344 60.3678 18.68 58.2718 18.904 56.1278C19.128 53.9518 19.24 51.9518 19.24 50.1278ZM39.352 28.3358C39.352 28.4958 39.288 28.6238 39.16 28.7198C39.032 28.8158 38.872 28.9278 38.68 29.0558C37.72 29.6318 36.936 30.4318 36.328 31.4558C35.72 32.4798 35.224 33.5998 34.84 34.8158C34.488 36.0318 34.248 37.2798 34.12 38.5598C33.992 39.8078 33.928 40.9598 33.928 42.0158C33.928 42.7518 33.96 43.6638 34.024 44.7518C34.12 45.8078 34.216 46.9758 34.312 48.2558C34.44 49.5358 34.536 50.8958 34.6 52.3358C34.696 53.7438 34.744 55.1838 34.744 56.6558C34.744 58.7358 34.616 60.7518 34.36 62.7038C34.136 64.6558 33.672 66.3998 32.968 67.9358C32.296 69.4718 31.352 70.7038 30.136 71.6318C28.92 72.5598 27.336 73.0238 25.384 73.0238C24.488 73.0238 23.64 72.8478 22.84 72.4958C22.072 72.1758 21.352 71.7118 20.68 71.1038C20.04 70.4958 19.448 69.7918 18.904 68.9918C18.392 68.1918 17.928 67.3118 17.512 66.3518C17.096 67.4718 16.6 68.5118 16.024 69.4718C15.48 70.4318 14.872 71.2638 14.2 71.9678C13.528 72.6718 12.792 73.2158 11.992 73.5998C11.192 73.9838 10.344 74.1758 9.44799 74.1758C8.07199 74.1758 6.90399 73.8238 5.94399 73.1198C5.01599 72.4158 4.24799 71.4878 3.63999 70.3358C3.03199 69.2158 2.55199 67.9358 2.19999 66.4958C1.87999 65.0238 1.63999 63.5358 1.47999 62.0318C1.31999 60.4958 1.20799 59.0078 1.14399 57.5678C1.11199 56.0958 1.07999 54.7998 1.04799 53.6798C0.983991 51.6638 1.01599 49.7598 1.14399 47.9678C1.30399 46.1438 1.47999 44.5118 1.67199 43.0718C1.86399 41.5998 2.05599 40.3358 2.24799 39.2798C2.43999 38.2238 2.56799 37.4398 2.63199 36.9278C2.66399 36.7358 2.85599 36.6078 3.20799 36.5438C3.59199 36.4798 3.92799 36.4478 4.21599 36.4478C4.43999 36.4478 4.63199 36.4798 4.79199 36.5438C4.95199 36.5758 5.03199 36.6718 5.03199 36.8318C5.03199 37.0238 4.95199 37.3598 4.79199 37.8398C4.63199 38.2878 4.39199 39.1518 4.07199 40.4318C3.94399 41.0078 3.79999 41.8398 3.63999 42.9278C3.51199 43.9838 3.38399 45.1838 3.25599 46.5278C3.15999 47.8718 3.07999 49.3118 3.01599 50.8478C2.95199 52.3518 2.91999 53.8238 2.91999 55.2638C2.91999 56.3838 2.96799 57.6158 3.06399 58.9598C3.15999 60.2718 3.31999 61.5838 3.54399 62.8958C3.76799 64.1758 4.07199 65.4238 4.45599 66.6398C4.83999 67.8558 5.30399 68.9278 5.84799 69.8558C6.42399 70.7838 7.09599 71.5198 7.86399 72.0638C8.63199 72.6398 9.52799 72.9278 10.552 72.9278C11.32 72.9278 12.024 72.7358 12.664 72.3518C13.304 71.9678 13.896 71.4238 14.44 70.7198C14.984 70.0478 15.464 69.2478 15.88 68.3198C16.328 67.3918 16.728 66.3838 17.08 65.2958C16.344 63.2798 15.8 61.1358 15.448 58.8638C15.096 56.5918 14.92 54.4958 14.92 52.5758C14.92 51.1678 14.968 49.7758 15.064 48.3998C15.192 47.0238 15.368 45.7918 15.592 44.7038C15.816 43.6158 16.104 42.7358 16.456 42.0638C16.808 41.3918 17.224 41.0558 17.704 41.0558C18.088 41.0558 18.424 41.2958 18.712 41.7758C19.032 42.2558 19.288 42.9118 19.48 43.7438C19.704 44.5758 19.864 45.5678 19.96 46.7198C20.088 47.8398 20.152 49.0558 20.152 50.3678C20.152 52.4798 20.008 54.7038 19.72 57.0398C19.432 59.3438 18.984 61.5998 18.376 63.8078C18.792 64.9278 19.272 65.9678 19.816 66.9278C20.36 67.8558 20.968 68.6718 21.64 69.3758C22.344 70.0798 23.112 70.6238 23.944 71.0078C24.808 71.4238 25.752 71.6318 26.776 71.6318C28.184 71.6318 29.336 71.2798 30.232 70.5758C31.128 69.9038 31.832 68.9758 32.344 67.7918C32.856 66.5758 33.208 65.1838 33.4 63.6158C33.592 62.0158 33.688 60.3038 33.688 58.4798C33.688 56.8478 33.624 55.1678 33.496 53.4398C33.4 51.7118 33.288 49.9998 33.16 48.3038C33.032 46.5758 32.904 44.9118 32.776 43.3118C32.68 41.6798 32.632 40.1758 32.632 38.7998C32.632 37.8078 32.776 36.6558 33.064 35.3438C33.384 34.0318 33.8 32.7998 34.312 31.6478C34.856 30.4638 35.464 29.4718 36.136 28.6718C36.84 27.8398 37.576 27.4238 38.344 27.4238C38.568 27.4238 38.792 27.5358 39.016 27.7598C39.24 27.9518 39.352 28.1438 39.352 28.3358Z" fill="#1F1711"/>
<path d="M54.3396 60.2078C54.3396 59.7278 54.2596 59.3438 54.0996 59.0558C53.9396 58.7358 53.6836 58.5758 53.3316 58.5758C52.7876 58.5758 52.3716 58.8478 52.0836 59.3918C51.7956 59.9038 51.6676 60.5598 51.6996 61.3598C51.7956 63.0558 52.0996 64.4798 52.6116 65.6318C53.1556 64.8958 53.5716 64.0638 53.8596 63.1358C54.1796 62.2078 54.3396 61.2318 54.3396 60.2078ZM67.2996 60.1598C67.0756 60.6398 66.8356 61.1358 66.5796 61.6478C66.3236 62.1278 66.0356 62.6078 65.7156 63.0878C64.0836 65.5198 62.4356 67.3278 60.7716 68.5118C59.1076 69.6958 57.5556 70.2878 56.1156 70.2878C54.2916 70.2878 52.8996 69.4238 51.9396 67.6958C50.8196 68.8158 49.5556 69.6638 48.1476 70.2398C46.7716 70.8158 45.4116 71.1038 44.0676 71.1038C43.2676 71.1038 42.4996 70.9918 41.7636 70.7678C41.0596 70.5438 40.4516 70.2078 39.9396 69.7598C39.3956 69.2798 38.9636 68.6878 38.6436 67.9838C38.3236 67.2478 38.1636 66.3998 38.1636 65.4398C38.1636 64.2878 38.4356 63.1198 38.9796 61.9358C39.4916 60.7198 40.2116 59.6318 41.1396 58.6718C42.0996 57.6798 43.2196 56.8638 44.4996 56.2238C45.7796 55.5838 47.1716 55.2638 48.6756 55.2638C49.8916 55.2638 50.8356 55.4398 51.5076 55.7918C52.1796 56.1118 52.5156 56.4158 52.5156 56.7038C52.5156 56.8318 52.4516 56.9278 52.3236 56.9918C52.1956 57.0558 52.0836 57.0878 51.9876 57.0878C51.9556 57.0558 51.9236 57.0398 51.8916 57.0398H51.8436C51.4596 56.6878 51.0276 56.4158 50.5476 56.2238C50.0676 55.9998 49.3636 55.8878 48.4356 55.8878C47.1876 55.8878 46.0516 56.1598 45.0276 56.7038C44.0356 57.2158 43.1876 57.9038 42.4836 58.7678C41.7796 59.5998 41.2356 60.5278 40.8516 61.5518C40.4676 62.5758 40.2756 63.5838 40.2756 64.5758C40.2756 66.4958 40.7236 67.8878 41.6196 68.7518C42.5156 69.6158 43.6356 70.0478 44.9796 70.0478C46.0676 70.0478 47.2036 69.7758 48.3876 69.2318C49.5716 68.6878 50.6276 67.9198 51.5556 66.9278C51.0436 65.7758 50.7876 64.2718 50.7876 62.4158C50.7876 61.1998 51.0116 60.1438 51.4596 59.2478C51.9076 58.3518 52.5476 57.9038 53.3796 57.9038C54.5316 57.9038 55.1076 58.5758 55.1076 59.9198C55.1076 61.2638 54.9156 62.4798 54.5316 63.5678C54.1476 64.6238 53.6356 65.5838 52.9956 66.4478C53.8916 68.1118 55.1396 68.9438 56.7396 68.9438C57.9556 68.9438 59.2516 68.4318 60.6276 67.4078C62.0356 66.3838 63.4116 64.8958 64.7556 62.9438C65.0756 62.4638 65.3636 61.9678 65.6196 61.4558C65.8756 60.9438 66.1316 60.4318 66.3876 59.9198L67.2996 60.1598Z" fill="#1F1711"/>
<path d="M73.9667 38.7038C73.9667 36.8798 73.6627 35.4238 73.0547 34.3358C72.4787 33.2158 71.5027 32.6558 70.1267 32.6558C69.6467 32.6558 69.1987 32.8158 68.7827 33.1358C68.3987 33.4238 68.0627 33.8238 67.7747 34.3358C67.4867 34.8478 67.2627 35.4398 67.1027 36.1118C66.9427 36.7838 66.8627 37.5038 66.8627 38.2718C66.8627 40.3838 66.8787 42.3038 66.9107 44.0318C66.9427 45.7598 66.9747 47.3918 67.0067 48.9278C67.0707 50.4638 67.1347 51.9518 67.1987 53.3918C67.2627 54.8318 67.3267 56.3038 67.3907 57.8078C68.3187 56.5598 69.1827 55.1358 69.9827 53.5358C70.7827 51.9038 71.4707 50.2398 72.0467 48.5438C72.6547 46.8158 73.1187 45.1038 73.4387 43.4078C73.7907 41.7118 73.9667 40.1438 73.9667 38.7038ZM91.3427 60.1598C91.1187 60.6398 90.8787 61.1358 90.6227 61.6478C90.3987 62.1598 90.1107 62.6398 89.7587 63.0878C87.9987 65.5838 85.9987 67.5518 83.7587 68.9918C81.5187 70.3998 79.2947 71.1038 77.0867 71.1038C75.7107 71.1038 74.3987 70.7838 73.1507 70.1438C71.9027 69.5358 70.7987 68.5438 69.8387 67.1678C69.7107 67.0078 69.6467 66.8638 69.6467 66.7358C69.6467 66.4478 69.8387 66.3038 70.2227 66.3038C70.2547 66.3038 70.3667 66.3358 70.5587 66.3998C70.8147 66.3998 71.1027 66.4958 71.4227 66.6878C71.7747 66.8478 72.2707 66.9278 72.9107 66.9278C73.9027 66.9278 74.8307 66.7518 75.6947 66.3998C76.5587 66.0478 77.2947 65.5998 77.9027 65.0558C78.5427 64.4798 79.0387 63.8398 79.3907 63.1358C79.7427 62.3998 79.9187 61.6478 79.9187 60.8798C79.9187 59.9198 79.6627 59.0878 79.1507 58.3838C78.6707 57.6798 77.8387 57.3278 76.6547 57.3278C75.4387 57.3278 74.3187 57.7598 73.2947 58.6238C72.2707 59.4558 71.3427 60.4798 70.5107 61.6958C69.7107 62.8798 69.0227 64.1438 68.4467 65.4878C67.8707 66.7998 67.4387 67.9518 67.1507 68.9438C66.9907 69.4878 66.8467 69.8238 66.7187 69.9518C66.5907 70.0798 66.4467 70.1438 66.2867 70.1438C65.9347 70.1438 65.7747 69.8078 65.8067 69.1358C65.8067 68.8478 65.8227 68.4958 65.8547 68.0798C65.8867 67.6638 65.9187 67.2158 65.9507 66.7358C65.9507 66.2558 65.9667 65.7758 65.9987 65.2958C66.0307 64.7838 66.0467 64.3198 66.0467 63.9038C66.0467 62.4638 66.0147 60.8158 65.9507 58.9598C65.8867 57.0718 65.8067 55.1358 65.7107 53.1518C65.6147 51.1358 65.5347 49.1358 65.4707 47.1518C65.4067 45.1678 65.3747 43.3438 65.3747 41.6798C65.3747 40.3678 65.4707 39.1038 65.6627 37.8878C65.8547 36.6398 66.1587 35.5518 66.5747 34.6238C66.9907 33.6638 67.5187 32.9118 68.1587 32.3678C68.7987 31.7918 69.5507 31.5038 70.4147 31.5038C71.3107 31.5038 72.0627 31.6638 72.6707 31.9838C73.3107 32.2718 73.8227 32.7038 74.2067 33.2798C74.5907 33.8238 74.8627 34.4958 75.0227 35.2958C75.2147 36.0638 75.3107 36.9118 75.3107 37.8398C75.3107 39.4398 75.0867 41.1998 74.6387 43.1198C74.1907 45.0078 73.5987 46.9118 72.8627 48.8318C72.1267 50.7518 71.2787 52.6078 70.3187 54.3998C69.3907 56.1598 68.4307 57.6958 67.4387 59.0078C67.5027 59.9678 67.5347 60.9598 67.5347 61.9838C67.5667 63.0078 67.6147 64.0958 67.6787 65.2478C68.4787 63.5198 69.3587 62.0318 70.3187 60.7838C70.7347 60.2398 71.1987 59.7118 71.7107 59.1998C72.2547 58.6558 72.8147 58.1758 73.3907 57.7598C73.9987 57.3438 74.6387 57.0078 75.3107 56.7518C76.0147 56.4958 76.7507 56.3678 77.5187 56.3678C78.7347 56.3678 79.7907 56.6718 80.6867 57.2798C81.5827 57.8878 82.0307 58.8638 82.0307 60.2078C82.0307 61.4878 81.7107 62.5758 81.0707 63.4718C80.4627 64.3678 79.6947 65.1198 78.7667 65.7278C77.8387 66.3038 76.8467 66.7358 75.7907 67.0238C74.7347 67.3118 73.7747 67.4878 72.9107 67.5518C72.8467 67.5518 72.8147 67.5678 72.8147 67.5998C72.8147 67.6638 72.8627 67.7598 72.9587 67.8878C73.5987 68.6238 74.3187 69.1518 75.1187 69.4718C75.9187 69.7918 76.7507 69.9518 77.6147 69.9518C78.6707 69.9518 79.7427 69.7598 80.8307 69.3758C81.9187 68.9598 82.9587 68.4318 83.9507 67.7918C84.9427 67.1198 85.8547 66.3678 86.6867 65.5358C87.5507 64.6718 88.2547 63.8078 88.7987 62.9438C89.1187 62.4638 89.4067 61.9678 89.6627 61.4558C89.9187 60.9438 90.1747 60.4318 90.4307 59.9198L91.3427 60.1598Z" fill="#1F1711"/>
<path d="M98.1096 57.1838C98.1096 56.3198 97.8856 55.6158 97.4376 55.0718C97.0216 54.4958 96.3336 54.2078 95.3736 54.2078C94.8616 54.2078 94.3976 54.3678 93.9816 54.6878C93.5656 55.0078 93.2136 55.4398 92.9256 55.9838C92.6376 56.4958 92.4136 57.1038 92.2536 57.8078C92.0936 58.5118 92.0136 59.2478 92.0136 60.0158C92.0136 61.2318 92.1416 62.3198 92.3976 63.2798C92.6856 64.2078 93.0856 65.0238 93.5976 65.7278C94.2696 65.1838 94.8776 64.5598 95.4216 63.8558C95.9656 63.1518 96.4296 62.4158 96.8136 61.6478C97.2296 60.8798 97.5496 60.1118 97.7736 59.3438C97.9976 58.5758 98.1096 57.8558 98.1096 57.1838ZM110.254 60.1598C110.03 60.6398 109.79 61.1358 109.534 61.6478C109.31 62.1278 109.022 62.6078 108.67 63.0878C107.102 65.3278 105.31 67.0238 103.294 68.1758C101.31 69.2958 99.4056 69.8558 97.5816 69.8558C96.5576 69.8558 95.5976 69.6798 94.7016 69.3278C93.8376 68.9758 93.0856 68.4478 92.4456 67.7438C91.8056 67.0398 91.2936 66.1598 90.9096 65.1038C90.5256 64.0478 90.3336 62.7998 90.3336 61.3598C90.3336 60.3998 90.4776 59.4398 90.7656 58.4798C91.0536 57.5198 91.4376 56.6558 91.9176 55.8878C92.4296 55.1198 93.0056 54.4958 93.6456 54.0158C94.3176 53.5358 95.0216 53.2958 95.7576 53.2958C96.9416 53.2958 97.8056 53.6478 98.3496 54.3518C98.8936 55.0238 99.1656 55.8878 99.1656 56.9438C99.1656 58.3838 98.7176 59.9518 97.8216 61.6478C96.9576 63.3118 95.7096 64.8638 94.0776 66.3038C95.2936 67.6798 96.8616 68.3678 98.7816 68.3678C100.222 68.3678 101.726 67.9358 103.294 67.0718C104.862 66.1758 106.334 64.7998 107.71 62.9438C108.062 62.4958 108.35 62.0158 108.574 61.5038C108.83 60.9598 109.086 60.4318 109.342 59.9198L110.254 60.1598Z" fill="#1F1711"/>
<path d="M151.839 48.0638C150.655 48.0638 149.519 48.1918 148.431 48.4478C147.375 48.7038 146.431 49.0078 145.599 49.3598C144.799 49.7118 144.143 50.0798 143.631 50.4638C143.151 50.8478 142.911 51.1838 142.911 51.4718C142.911 51.8558 143.359 52.0478 144.255 52.0478C145.791 52.0478 147.247 51.6798 148.623 50.9438C150.031 50.2078 151.295 49.2478 152.415 48.0638H151.839ZM165.807 55.2638C165.807 56.8318 165.359 58.5278 164.463 60.3518C163.599 62.1758 162.399 63.9838 160.863 65.7758C159.327 67.5678 157.503 69.2958 155.391 70.9598C153.279 72.6238 151.007 74.0958 148.575 75.3758C146.143 76.6558 143.583 77.6638 140.895 78.3998C138.207 79.1678 135.519 79.5518 132.831 79.5518C132.383 79.5518 131.887 79.5358 131.343 79.5038C130.831 79.4718 130.351 79.3918 129.903 79.2638C129.455 79.1678 129.071 78.9918 128.751 78.7358C128.431 78.5118 128.271 78.1918 128.271 77.7758C128.271 77.1998 128.559 76.6398 129.135 76.0958C129.711 75.5838 130.447 75.1038 131.343 74.6558C132.239 74.2078 133.215 73.8078 134.271 73.4558C135.327 73.1038 136.335 72.7998 137.295 72.5438C138.287 72.2878 139.151 72.0798 139.887 71.9198C140.623 71.7918 141.119 71.7278 141.375 71.7278C141.567 71.7278 141.711 71.7758 141.807 71.8718C141.903 71.9678 141.951 72.0638 141.951 72.1598C141.951 72.3198 141.871 72.3998 141.711 72.3998H141.087C140.255 72.3998 139.199 72.5598 137.919 72.8798C136.639 73.1998 135.391 73.5998 134.175 74.0798C132.959 74.5598 131.919 75.0878 131.055 75.6638C130.191 76.2718 129.759 76.8318 129.759 77.3438C129.759 77.6958 129.871 77.9678 130.095 78.1598C130.351 78.3838 130.655 78.5598 131.007 78.6878C131.359 78.8158 131.727 78.8958 132.111 78.9278C132.495 78.9918 132.831 79.0238 133.119 79.0238C135.391 79.0238 137.711 78.6398 140.079 77.8718C142.479 77.1038 144.799 76.0798 147.039 74.7998C149.311 73.5518 151.439 72.0958 153.423 70.4318C155.439 68.7998 157.199 67.1038 158.703 65.3438C160.207 63.5518 161.391 61.7758 162.255 60.0158C163.119 58.2238 163.551 56.5598 163.551 55.0238C163.551 53.1358 162.767 51.5678 161.199 50.3198C159.663 49.0398 157.119 48.3038 153.567 48.1118C152.127 49.4558 150.543 50.5438 148.815 51.3758C147.119 52.2078 145.391 52.6238 143.631 52.6238C142.383 52.6238 141.759 52.3198 141.759 51.7118C141.759 51.3278 142.015 50.8958 142.527 50.4158C143.071 49.9038 143.807 49.4238 144.735 48.9758C145.695 48.5278 146.831 48.1598 148.143 47.8718C149.455 47.5518 150.895 47.3918 152.463 47.3918H153.039C154.095 46.1438 154.943 44.7838 155.583 43.3118C156.223 41.8078 156.543 40.3358 156.543 38.8958C156.543 37.9358 156.367 37.0238 156.015 36.1598C155.695 35.2638 155.151 34.4958 154.383 33.8558C153.647 33.2158 152.671 32.7038 151.455 32.3198C150.271 31.9358 148.831 31.7438 147.135 31.7438C145.983 31.7438 144.383 31.9038 142.335 32.2238C140.319 32.5438 138.127 33.0398 135.759 33.7118C133.423 34.3518 131.039 35.1678 128.607 36.1598C126.175 37.1518 123.967 38.3038 121.983 39.6158C119.999 40.9278 118.383 42.4158 117.135 44.0798C115.887 45.7438 115.263 47.5838 115.263 49.5998C115.263 49.8558 115.215 50.0798 115.119 50.2718C115.023 50.4318 114.927 50.5118 114.831 50.5118C114.703 50.5118 114.607 50.3838 114.543 50.1278C114.447 49.8398 114.399 49.3758 114.399 48.7358C114.687 46.6558 115.535 44.7678 116.943 43.0718C118.351 41.3758 120.095 39.8718 122.175 38.5598C124.223 37.2158 126.479 36.0638 128.943 35.1038C131.407 34.1438 133.839 33.3598 136.239 32.7518C138.671 32.1118 140.927 31.6478 143.007 31.3598C145.119 31.0398 146.847 30.8798 148.191 30.8798C150.143 30.8798 151.791 31.0718 153.135 31.4558C154.511 31.8078 155.631 32.3038 156.495 32.9438C157.359 33.5518 157.983 34.2878 158.367 35.1518C158.751 36.0158 158.943 36.9278 158.943 37.8878C158.943 39.4558 158.511 41.0878 157.647 42.7838C156.815 44.4478 155.679 45.9998 154.239 47.4398C156.287 47.5358 158.047 47.8078 159.519 48.2558C160.991 48.6718 162.191 49.2318 163.119 49.9358C164.047 50.6078 164.719 51.4078 165.135 52.3358C165.583 53.2318 165.807 54.2078 165.807 55.2638ZM140.367 67.8878C140.367 68.3358 140.335 68.6558 140.271 68.8478C140.207 69.0398 140.031 69.1358 139.743 69.1358C139.103 69.1998 138.783 68.5598 138.783 67.2158C138.751 62.7998 138.703 58.7678 138.639 55.1198C138.607 51.4718 138.559 48.3198 138.495 45.6638C138.463 42.9758 138.431 40.8478 138.399 39.2798C138.367 37.7118 138.351 36.8158 138.351 36.5918C138.351 36.3358 138.431 36.1598 138.591 36.0638C138.751 35.9678 138.943 35.8878 139.167 35.8238C139.423 35.8238 139.615 35.9038 139.743 36.0638C139.903 36.2238 139.983 36.4158 139.983 36.6398C139.983 39.1998 139.999 41.8398 140.031 44.5598C140.063 47.2478 140.095 49.9358 140.127 52.6238C140.191 55.3118 140.239 57.9518 140.271 60.5438C140.335 63.1358 140.367 65.5838 140.367 67.8878Z" fill="#1F1711"/>
<path d="M184.465 60.2078C184.465 59.7278 184.385 59.3438 184.225 59.0558C184.065 58.7358 183.809 58.5758 183.457 58.5758C182.913 58.5758 182.497 58.8478 182.209 59.3918C181.921 59.9038 181.793 60.5598 181.825 61.3598C181.921 63.0558 182.225 64.4798 182.737 65.6318C183.281 64.8958 183.697 64.0638 183.985 63.1358C184.305 62.2078 184.465 61.2318 184.465 60.2078ZM197.425 60.1598C197.201 60.6398 196.961 61.1358 196.705 61.6478C196.449 62.1278 196.161 62.6078 195.841 63.0878C194.209 65.5198 192.561 67.3278 190.897 68.5118C189.233 69.6958 187.681 70.2878 186.241 70.2878C184.417 70.2878 183.025 69.4238 182.065 67.6958C180.945 68.8158 179.681 69.6638 178.273 70.2398C176.897 70.8158 175.537 71.1038 174.193 71.1038C173.393 71.1038 172.625 70.9918 171.889 70.7678C171.185 70.5438 170.577 70.2078 170.065 69.7598C169.521 69.2798 169.089 68.6878 168.769 67.9838C168.449 67.2478 168.289 66.3998 168.289 65.4398C168.289 64.2878 168.561 63.1198 169.105 61.9358C169.617 60.7198 170.337 59.6318 171.265 58.6718C172.225 57.6798 173.345 56.8638 174.625 56.2238C175.905 55.5838 177.297 55.2638 178.801 55.2638C180.017 55.2638 180.961 55.4398 181.633 55.7918C182.305 56.1118 182.641 56.4158 182.641 56.7038C182.641 56.8318 182.577 56.9278 182.449 56.9918C182.321 57.0558 182.209 57.0878 182.113 57.0878C182.081 57.0558 182.049 57.0398 182.017 57.0398H181.969C181.585 56.6878 181.153 56.4158 180.673 56.2238C180.193 55.9998 179.489 55.8878 178.561 55.8878C177.313 55.8878 176.177 56.1598 175.153 56.7038C174.161 57.2158 173.313 57.9038 172.609 58.7678C171.905 59.5998 171.361 60.5278 170.977 61.5518C170.593 62.5758 170.401 63.5838 170.401 64.5758C170.401 66.4958 170.849 67.8878 171.745 68.7518C172.641 69.6158 173.761 70.0478 175.105 70.0478C176.193 70.0478 177.329 69.7758 178.513 69.2318C179.697 68.6878 180.753 67.9198 181.681 66.9278C181.169 65.7758 180.913 64.2718 180.913 62.4158C180.913 61.1998 181.137 60.1438 181.585 59.2478C182.033 58.3518 182.673 57.9038 183.505 57.9038C184.657 57.9038 185.233 58.5758 185.233 59.9198C185.233 61.2638 185.041 62.4798 184.657 63.5678C184.273 64.6238 183.761 65.5838 183.121 66.4478C184.017 68.1118 185.265 68.9438 186.865 68.9438C188.081 68.9438 189.377 68.4318 190.753 67.4078C192.161 66.3838 193.537 64.8958 194.881 62.9438C195.201 62.4638 195.489 61.9678 195.745 61.4558C196.001 60.9438 196.257 60.4318 196.513 59.9198L197.425 60.1598Z" fill="#1F1711"/>
<path d="M204.092 38.7038C204.092 36.8798 203.788 35.4238 203.18 34.3358C202.604 33.2158 201.628 32.6558 200.252 32.6558C199.772 32.6558 199.324 32.8158 198.908 33.1358C198.524 33.4238 198.188 33.8238 197.9 34.3358C197.612 34.8478 197.388 35.4398 197.228 36.1118C197.068 36.7838 196.988 37.5038 196.988 38.2718C196.988 40.3838 197.004 42.3038 197.036 44.0318C197.068 45.7598 197.1 47.3918 197.132 48.9278C197.196 50.4638 197.26 51.9518 197.324 53.3918C197.388 54.8318 197.452 56.3038 197.516 57.8078C198.444 56.5598 199.308 55.1358 200.108 53.5358C200.908 51.9038 201.596 50.2398 202.172 48.5438C202.78 46.8158 203.244 45.1038 203.564 43.4078C203.916 41.7118 204.092 40.1438 204.092 38.7038ZM221.468 60.1598C221.244 60.6398 221.004 61.1358 220.748 61.6478C220.524 62.1598 220.236 62.6398 219.884 63.0878C218.124 65.5838 216.124 67.5518 213.884 68.9918C211.644 70.3998 209.42 71.1038 207.212 71.1038C205.836 71.1038 204.524 70.7838 203.276 70.1438C202.028 69.5358 200.924 68.5438 199.964 67.1678C199.836 67.0078 199.772 66.8638 199.772 66.7358C199.772 66.4478 199.964 66.3038 200.348 66.3038C200.38 66.3038 200.492 66.3358 200.684 66.3998C200.94 66.3998 201.228 66.4958 201.548 66.6878C201.9 66.8478 202.396 66.9278 203.036 66.9278C204.028 66.9278 204.956 66.7518 205.82 66.3998C206.684 66.0478 207.42 65.5998 208.028 65.0558C208.668 64.4798 209.164 63.8398 209.516 63.1358C209.868 62.3998 210.044 61.6478 210.044 60.8798C210.044 59.9198 209.788 59.0878 209.276 58.3838C208.796 57.6798 207.964 57.3278 206.78 57.3278C205.564 57.3278 204.444 57.7598 203.42 58.6238C202.396 59.4558 201.468 60.4798 200.636 61.6958C199.836 62.8798 199.148 64.1438 198.572 65.4878C197.996 66.7998 197.564 67.9518 197.276 68.9438C197.116 69.4878 196.972 69.8238 196.844 69.9518C196.716 70.0798 196.572 70.1438 196.412 70.1438C196.06 70.1438 195.9 69.8078 195.932 69.1358C195.932 68.8478 195.948 68.4958 195.98 68.0798C196.012 67.6638 196.044 67.2158 196.076 66.7358C196.076 66.2558 196.092 65.7758 196.124 65.2958C196.156 64.7838 196.172 64.3198 196.172 63.9038C196.172 62.4638 196.14 60.8158 196.076 58.9598C196.012 57.0718 195.932 55.1358 195.836 53.1518C195.74 51.1358 195.66 49.1358 195.596 47.1518C195.532 45.1678 195.5 43.3438 195.5 41.6798C195.5 40.3678 195.596 39.1038 195.788 37.8878C195.98 36.6398 196.284 35.5518 196.7 34.6238C197.116 33.6638 197.644 32.9118 198.284 32.3678C198.924 31.7918 199.676 31.5038 200.54 31.5038C201.436 31.5038 202.188 31.6638 202.796 31.9838C203.436 32.2718 203.948 32.7038 204.332 33.2798C204.716 33.8238 204.988 34.4958 205.148 35.2958C205.34 36.0638 205.436 36.9118 205.436 37.8398C205.436 39.4398 205.212 41.1998 204.764 43.1198C204.316 45.0078 203.724 46.9118 202.988 48.8318C202.252 50.7518 201.404 52.6078 200.444 54.3998C199.516 56.1598 198.556 57.6958 197.564 59.0078C197.628 59.9678 197.66 60.9598 197.66 61.9838C197.692 63.0078 197.74 64.0958 197.804 65.2478C198.604 63.5198 199.484 62.0318 200.444 60.7838C200.86 60.2398 201.324 59.7118 201.836 59.1998C202.38 58.6558 202.94 58.1758 203.516 57.7598C204.124 57.3438 204.764 57.0078 205.436 56.7518C206.14 56.4958 206.876 56.3678 207.644 56.3678C208.86 56.3678 209.916 56.6718 210.812 57.2798C211.708 57.8878 212.156 58.8638 212.156 60.2078C212.156 61.4878 211.836 62.5758 211.196 63.4718C210.588 64.3678 209.82 65.1198 208.892 65.7278C207.964 66.3038 206.972 66.7358 205.916 67.0238C204.86 67.3118 203.9 67.4878 203.036 67.5518C202.972 67.5518 202.94 67.5678 202.94 67.5998C202.94 67.6638 202.988 67.7598 203.084 67.8878C203.724 68.6238 204.444 69.1518 205.244 69.4718C206.044 69.7918 206.876 69.9518 207.74 69.9518C208.796 69.9518 209.868 69.7598 210.956 69.3758C212.044 68.9598 213.084 68.4318 214.076 67.7918C215.068 67.1198 215.98 66.3678 216.812 65.5358C217.676 64.6718 218.38 63.8078 218.924 62.9438C219.244 62.4638 219.532 61.9678 219.788 61.4558C220.044 60.9438 220.3 60.4318 220.556 59.9198L221.468 60.1598Z" fill="#1F1711"/>
<path d="M228.235 57.1838C228.235 56.3198 228.011 55.6158 227.563 55.0718C227.147 54.4958 226.459 54.2078 225.499 54.2078C224.987 54.2078 224.523 54.3678 224.107 54.6878C223.691 55.0078 223.339 55.4398 223.051 55.9838C222.763 56.4958 222.539 57.1038 222.379 57.8078C222.219 58.5118 222.139 59.2478 222.139 60.0158C222.139 61.2318 222.267 62.3198 222.523 63.2798C222.811 64.2078 223.211 65.0238 223.723 65.7278C224.395 65.1838 225.003 64.5598 225.547 63.8558C226.091 63.1518 226.555 62.4158 226.939 61.6478C227.355 60.8798 227.675 60.1118 227.899 59.3438C228.123 58.5758 228.235 57.8558 228.235 57.1838ZM240.379 60.1598C240.155 60.6398 239.915 61.1358 239.659 61.6478C239.435 62.1278 239.147 62.6078 238.795 63.0878C237.227 65.3278 235.435 67.0238 233.419 68.1758C231.435 69.2958 229.531 69.8558 227.707 69.8558C226.683 69.8558 225.723 69.6798 224.827 69.3278C223.963 68.9758 223.211 68.4478 222.571 67.7438C221.931 67.0398 221.419 66.1598 221.035 65.1038C220.651 64.0478 220.459 62.7998 220.459 61.3598C220.459 60.3998 220.603 59.4398 220.891 58.4798C221.179 57.5198 221.563 56.6558 222.043 55.8878C222.555 55.1198 223.131 54.4958 223.771 54.0158C224.443 53.5358 225.147 53.2958 225.883 53.2958C227.067 53.2958 227.931 53.6478 228.475 54.3518C229.019 55.0238 229.291 55.8878 229.291 56.9438C229.291 58.3838 228.843 59.9518 227.947 61.6478C227.083 63.3118 225.835 64.8638 224.203 66.3038C225.419 67.6798 226.987 68.3678 228.907 68.3678C230.347 68.3678 231.851 67.9358 233.419 67.0718C234.987 66.1758 236.459 64.7998 237.835 62.9438C238.187 62.4958 238.475 62.0158 238.699 61.5038C238.955 60.9598 239.211 60.4318 239.467 59.9198L240.379 60.1598Z" fill="#1F1711"/>
</svg>
